<svg width="80" height="80" viewBox="0 0 80 80" fill="none" xmlns="http://www.w3.org/2000/svg">
<circle cx="40" cy="40" r="40" fill="#f8c80d"/>
<g clip-path="url(#clip0_416_1539)">
<path fill-rule="evenodd" clip-rule="evenodd" d="M32.2082 17.6854L28.9498 19.2938C16.8811 25.5854 34.779 62.9271 48.3457 62.9271C49.304 62.9271 50.229 62.7313 51.0894 62.3354L54.3019 60.7625L48.2644 49.1083L45.0561 50.6792C44.679 50.8604 44.2561 50.9583 43.8123 50.9583C38.4769 50.9583 29.5603 33.8667 34.9769 30.9667L38.1978 29.3771L32.2082 17.6854ZM48.3457 65C36.5123 65 22.8853 41.8458 22.8853 27.85C22.8853 22.8104 24.6207 19.2125 28.004 17.45L32.9665 15L41.0019 30.3062L35.9248 32.8083C32.9269 34.4167 40.9436 50.3583 44.1665 48.8083L49.1644 46.3521L57.1144 61.6854C57.1144 61.6854 52.1978 64.1063 51.9561 64.2167C50.8165 64.7396 49.604 65 48.3457 65Z" fill="#4A4A4A"/>
</g>
<defs>
<clipPath id="clip0_416_1539">
<rect width="50" height="50" fill="white" transform="translate(15 15)"/>
</clipPath>
</defs>
</svg>
