<svg width="22" height="25" viewBox="0 0 22 25" fill="none" xmlns="http://www.w3.org/2000/svg">
<path d="M1.1873 4.3675H0.886914C0.396559 4.3675 0 3.94875 0 3.43375C0 2.91875 0.396559 2.5 0.886914 2.5H7.12381V1.25C7.12381 0.58125 7.68659 0 8.31111 0H13.0603C13.6848 0 14.2476 0.58125 14.2476 1.25V2.5H20.4857C20.9749 2.5 21.3714 2.91875 21.3714 3.43375C21.3714 3.94875 20.9749 4.3675 20.4857 4.3675H20.1841V23.6613C20.1841 24.4 19.6522 25 18.9968 25C15.5857 25 5.78572 25 2.3746 25C1.71921 25 1.1873 24.4 1.1873 23.6613V4.3675ZM18.4032 4.3675H2.96825V23.125H18.4032V4.3675ZM13.3571 7.5C12.8656 7.5 12.4667 7.92 12.4667 8.4375V19.0625C12.4667 19.58 12.8656 20 13.3571 20C13.8487 20 14.2476 19.58 14.2476 19.0625V8.4375C14.2476 7.92 13.8487 7.5 13.3571 7.5ZM8.01429 7.5C7.52274 7.5 7.12381 7.92 7.12381 8.4375V19.0625C7.12381 19.58 7.52274 20 8.01429 20C8.50583 20 8.90476 19.58 8.90476 19.0625V8.4375C8.90476 7.92 8.50583 7.5 8.01429 7.5ZM12.4667 2.5V1.875H8.90476V2.5H12.4667Z" fill="#FF0000"/>
</svg>
