<svg width="80" height="80" viewBox="0 0 122 122" fill="#4A4A4A" xmlns="http://www.w3.org/2000/svg">
<g clip-path="url(#clip0_15_605)">
<path d="M68.081 38.0137H25.2617V45.9701H68.081V38.0137Z" fill="#4A4A4A"/>
<path d="M68.081 19.0081H25.2617V26.9645H68.081V19.0081Z" fill="#4A4A4A"/>
<path d="M115.833 60.3846C112.549 56.2185 108.112 53.728 102.915 53.0284C105.446 47.5258 105.132 41.6844 105.112 41.3627L104.895 37.8535L101.386 37.6372C101.135 37.621 97.529 37.4261 93.3451 38.5398V0.000244141H0V122H68.0821V121.725C69.2084 121.906 70.3529 122 71.5126 122C76.7193 122 79.1245 121.111 81.142 120.2C81.9212 119.848 81.9881 119.835 82.2784 119.835C82.5686 119.835 82.6355 119.848 83.4145 120.2C85.4318 121.111 87.837 122 93.0439 122C102.723 122 111.376 115.606 116.784 104.458C120.147 97.525 122 89.3358 122 81.3986C122 72.8937 119.81 65.4307 115.833 60.3846ZM90.3504 48.8755C92.06 47.166 94.6173 46.3015 96.8554 45.8926C96.4468 48.1332 95.5823 50.6892 93.8733 52.3984C92.9379 53.3339 91.7484 54.0147 90.4969 54.5077C90.4478 54.5268 90.3997 54.5461 90.3508 54.5654C89.3574 54.9437 88.329 55.2061 87.3609 55.3827C87.7412 53.2262 88.5687 50.6576 90.3504 48.8755ZM7.95643 114.043V7.95668H85.3884V42.6265C85.1632 42.8267 84.9409 43.0328 84.7246 43.2492C83.8622 44.1115 83.135 45.0503 82.5147 46.0266C82.1061 44.9748 81.7315 44.0834 81.437 43.4102L74.1473 46.5984C75.3196 49.2784 76.5356 52.6663 77.3471 56.0067C75.4364 55.0169 73.2099 54.0388 70.7749 53.5048C63.4516 51.8985 56.9701 53.1502 52.071 57.0218H25.263V64.9782H45.9062C44.3758 68.1855 43.3457 71.9301 42.8679 76.029H25.263V83.9854H42.6258C42.811 87.7012 43.389 91.4345 44.3279 95.0359H25.263V102.992H47.0945C47.3135 103.486 47.5385 103.976 47.7724 104.458C49.5948 108.215 51.787 111.429 54.2615 114.043H7.95643ZM109.626 100.986C107.26 105.862 101.96 114.044 93.0439 114.044C89.1144 114.044 87.8255 113.462 86.6887 112.948C85.6326 112.471 84.3183 111.878 82.2781 111.878C80.2377 111.878 78.9236 112.471 77.8675 112.948C76.7302 113.462 75.4418 114.044 71.5121 114.044C62.5964 114.044 57.2965 105.862 54.9309 100.986C49.0327 88.8263 49.0513 72.8227 54.9726 65.3102C58.1498 61.2794 62.8935 59.9224 69.0705 61.277C71.5943 61.8303 74.0031 63.2054 76.1283 64.4185C78.4397 65.7379 80.2651 66.7796 82.2781 66.7796C84.2909 66.7796 86.1166 65.7376 88.4277 64.4185C90.5534 63.2054 92.9624 61.8303 95.4855 61.277C101.663 59.9219 106.406 61.2792 109.583 65.3102C115.505 72.8224 115.524 88.8263 109.626 100.986Z" fill="#4A4A4A" />
</g>
<defs>
<clipPath id="clip0_15_605">
<rect width="122" height="122" fill="white"/>
</clipPath>
</defs>
</svg>
