<svg width="80" height="80" viewBox="0 0 80 80" fill="none" xmlns="http://www.w3.org/2000/svg">
<g clip-path="url(#clip0_295_184)">
<path d="M1.04826 63.2682L4.55115 59.7656C4.6423 59.6745 4.73997 59.5898 4.83763 59.5052L2.32441 56.9922C2.28534 56.9531 2.25279 56.9141 2.22023 56.875C1.59518 56.1914 1.28266 55.3255 1.28266 54.4661C1.28266 53.5547 1.63425 52.6432 2.33092 51.9466L5.83381 48.444C5.92496 48.3529 6.02262 48.2682 6.12029 48.1836L3.60706 45.6706C2.91039 44.974 2.56531 44.056 2.56531 43.1445C2.56531 42.2331 2.9169 41.3216 3.60706 40.625L7.10995 37.1224C7.80662 36.4258 8.72467 36.0807 9.6362 36.0807C10.5542 36.0807 11.4658 36.4258 12.1624 37.1224L42.9006 67.8581C43.5973 68.5547 43.9424 69.4727 43.9424 70.3841C43.9424 71.3021 43.5973 72.2135 42.9006 72.9102L39.3977 76.4128C39.3587 76.4518 39.3196 76.4844 39.2805 76.5169C38.5969 77.1419 37.7309 77.4544 36.8715 77.4544C35.96 77.4544 35.0484 77.1029 34.3518 76.4128L32.2227 74.2839C32.1445 74.3815 32.0599 74.4792 31.9687 74.5703L28.4659 78.0729C28.4268 78.112 28.3877 78.1445 28.3487 78.1771C27.6715 78.7956 26.8056 79.1081 25.9396 79.1081C25.0216 79.1081 24.11 78.763 23.4199 78.0664L20.516 75.1628C20.4379 75.2604 20.3532 75.3581 20.2556 75.4492L16.7527 78.9518C16.056 79.6484 15.138 79.9935 14.2264 79.9935C13.3149 79.9935 12.3968 79.6484 11.7002 78.9518L1.04826 68.3268C0.351591 67.6302 0 66.7122 0 65.8008C0 64.8828 0.351591 63.9714 1.04826 63.2682ZM42.8746 5.84635L39.3717 9.34896L39.3391 9.38151C39.287 9.45313 39.261 9.53776 39.261 9.6224C39.261 9.72005 39.3001 9.82422 39.3717 9.89583L70.1099 40.6315C70.1815 40.7031 70.2792 40.7422 70.3833 40.7422C70.481 40.7422 70.5852 40.7031 70.6568 40.6315L74.1597 37.1289L74.1922 37.0964C74.2443 37.0313 74.2704 36.9401 74.2704 36.8555C74.2704 36.7513 74.2378 36.6536 74.1662 36.582L69.5239 31.9401L48.448 10.8789L43.4215 5.85286C43.3499 5.78125 43.2522 5.74219 43.148 5.74219C43.0439 5.73568 42.9462 5.77474 42.8746 5.84635ZM46.5337 30.8008C47.4062 29.9284 48.8256 29.9284 49.7046 30.8008C50.577 31.6732 50.577 33.0924 49.7046 33.9714L34.3387 49.3229C33.4663 50.1953 32.0469 50.1953 31.1679 49.3229C30.2954 48.4505 30.2954 47.0313 31.1679 46.1523L46.5337 30.8008ZM65.5327 3.30078L62.0298 6.80339C61.9517 6.88151 61.9126 6.97917 61.9126 7.07682C61.9126 7.16146 61.9386 7.23958 61.9907 7.3112L62.0298 7.35026L72.6556 17.9753L72.6882 18.0078C72.7533 18.0599 72.838 18.0794 72.9226 18.0794C73.0203 18.0794 73.1244 18.0404 73.1961 17.9688L76.6989 14.4661C76.7771 14.388 76.8161 14.2904 76.8161 14.1927C76.8161 14.0951 76.7771 13.9909 76.7055 13.9193L66.0796 3.30078C66.008 3.22917 65.9103 3.1901 65.8061 3.1901C65.702 3.1901 65.6043 3.22917 65.5327 3.30078ZM59.777 4.54427L63.2799 1.04167C63.9766 0.345052 64.8946 0 65.8061 0C66.7177 0 67.6357 0.345052 68.3324 1.04167L78.9582 11.6667C79.6484 12.3568 80 13.2747 79.9935 14.1862C79.9935 15.1042 79.6484 16.0221 78.9582 16.7122L75.4554 20.2148C75.3642 20.306 75.2665 20.3906 75.1689 20.4753L78.0728 23.3789C78.7694 24.0755 79.1145 24.9935 79.1145 25.9049C79.1145 26.8229 78.7629 27.7344 78.0728 28.431L74.5699 31.9336C74.4787 32.0247 74.381 32.1094 74.2834 32.1875L76.4125 34.3164C77.1091 35.013 77.4542 35.9245 77.4542 36.8359C77.4542 37.7018 77.1417 38.5677 76.5166 39.2448C76.4841 39.2839 76.4515 39.3229 76.4125 39.362L72.9096 42.8646C72.2129 43.5612 71.2949 43.9063 70.3833 43.9063C69.4653 43.9063 68.5538 43.5547 67.8571 42.8646L37.1189 12.1484C36.4222 11.4518 36.0706 10.5339 36.0706 9.6224C36.0706 8.75651 36.3832 7.89063 37.0082 7.21354C37.0408 7.17448 37.0733 7.13542 37.1124 7.09635L40.6153 3.59375C41.312 2.89714 42.2235 2.55208 43.135 2.55208C44.0531 2.55208 44.9646 2.90365 45.6613 3.59375L48.1745 6.10677C48.2526 6.00911 48.3373 5.91146 48.4349 5.82031L51.9378 2.31771C52.6345 1.62109 53.5525 1.26953 54.4641 1.26953C55.3821 1.26953 56.2936 1.62109 56.9903 2.31771L59.5035 4.83073C59.6012 4.73307 59.6858 4.63542 59.777 4.54427ZM54.2036 4.57682L50.7007 8.07943C50.6291 8.15104 50.59 8.2487 50.59 8.35286C50.59 8.45052 50.6226 8.54818 50.6942 8.61979L50.7007 8.6263L71.7702 29.694C71.8418 29.7656 71.9394 29.8047 72.0436 29.8047C72.1478 29.8047 72.2455 29.7721 72.3171 29.7005L75.82 26.1979C75.8916 26.1263 75.9307 26.0286 75.9307 25.9245C75.9307 25.8268 75.8916 25.7227 75.82 25.651L70.4094 20.2409L54.7505 4.57682C54.6789 4.50521 54.5747 4.46615 54.4771 4.46615C54.3729 4.46615 54.2752 4.4987 54.2036 4.57682ZM10.8798 48.444L31.9492 69.5117L36.5785 74.1406C36.6501 74.2122 36.7543 74.2448 36.852 74.2448C36.9366 74.2448 37.0212 74.2188 37.0929 74.1667L37.1254 74.1341L40.6283 70.6315C40.6999 70.5599 40.739 70.4622 40.739 70.3581C40.739 70.2604 40.6999 70.1563 40.6283 70.0846L9.89664 39.3685C9.82502 39.2969 9.72735 39.2578 9.62318 39.2578C9.52551 39.2578 9.42134 39.2969 9.34972 39.3685L5.84683 42.8711C5.77521 42.9427 5.74265 43.0469 5.74265 43.1445C5.74265 43.2422 5.78172 43.3464 5.85334 43.418L10.8798 48.444ZM29.729 71.8034L29.6964 71.7708L8.62049 50.6966L8.58143 50.6576C8.50981 50.6055 8.43168 50.5794 8.34703 50.5794C8.24937 50.5794 8.1517 50.6185 8.07357 50.6966L4.57068 54.1992C4.49906 54.2708 4.46651 54.375 4.46651 54.4727C4.46651 54.5573 4.49255 54.6419 4.54464 54.7135L4.5772 54.7461L9.60365 59.7721L20.2295 70.3971L25.6466 75.8138C25.7247 75.8919 25.8224 75.9245 25.9201 75.9245C26.0047 75.9245 26.0894 75.8984 26.161 75.8464L26.1935 75.8138L29.6964 72.3112C29.768 72.2396 29.8006 72.1354 29.8006 72.0378C29.8006 71.9531 29.7746 71.8685 29.729 71.8034ZM6.80394 62.0247L3.30105 65.5273C3.22943 65.599 3.19036 65.6966 3.19036 65.8008C3.19036 65.9049 3.22943 66.0026 3.30105 66.0742L13.9269 76.6992C13.9985 76.7708 14.0962 76.8099 14.2004 76.8099C14.298 76.8099 14.4022 76.7708 14.4738 76.6992L17.9767 73.1966C18.0483 73.125 18.0874 73.0273 18.0874 72.9232C18.0874 72.819 18.0483 72.7214 17.9767 72.6497L7.34435 62.0247L7.33784 62.0182C7.26622 61.9466 7.16855 61.9141 7.07089 61.9141C6.97322 61.9141 6.87556 61.9531 6.80394 62.0247Z" fill="#4A4A4A"/>
</g>
<defs>
<clipPath id="clip0_295_184">
<rect width="80" height="80" fill="white"/>
</clipPath>
</defs>
</svg>
