<svg width="100" height="100" viewBox="0 0 130 130" fill="none" xmlns="http://www.w3.org/2000/svg">
<g clip-path="url(#clip0_172_1773)">
<path fill-rule="evenodd" clip-rule="evenodd" d="M44.7415 6.98208L36.2699 11.1638C4.89112 27.5221 51.4257 124.61 86.699 124.61C89.1907 124.61 91.5957 124.101 93.8328 123.072L102.185 118.982L86.4878 88.6817L78.1461 92.7658C77.1657 93.2371 76.0661 93.4917 74.9124 93.4917C61.0403 93.4917 37.857 49.0533 51.9403 41.5133L60.3145 37.3804L44.7415 6.98208ZM86.699 130C55.9324 130 20.502 69.7992 20.502 33.41C20.502 20.3071 25.014 10.9525 33.8107 6.37L46.7132 0L67.6053 39.7962L54.4049 46.3017C46.6103 50.4833 67.4536 91.9317 75.8332 87.9017L88.8278 81.5154L109.498 121.382C109.498 121.382 96.7145 127.676 96.0861 127.963C93.1232 129.323 89.9707 130 86.699 130Z" 
fill="#f8c80d"/>
</g>
<defs>
<clipPath id="clip0_172_1773">
<rect width="130" height="130" fill="white"/>
</clipPath>
</defs>
</svg>
