<svg width="80" height="80" viewBox="0 0 80 80" fill="none" xmlns="http://www.w3.org/2000/svg">
<g clip-path="url(#clip0_295_107)">
<path d="M13.693 18.2297C19.0874 18.2297 20.1673 14.0379 20.1673 11.7518V9.54042C20.1673 7.25414 19.0872 3.0636 13.693 3.0636C8.29974 3.0636 7.21979 7.25414 7.21979 9.54042V11.7516C7.21979 14.0379 8.29974 18.2297 13.693 18.2297Z" fill="#4A4A4A"/>
<path d="M38.9827 28.9952L29.9366 33.4285L24.9751 25.3411C23.5205 22.9692 21.6398 21.1184 18.9705 21.1184H14.9013H9.10839C4.75372 21.1184 1.22321 24.8593 1.22321 29.4735V53.499H6.5546V78.9352H11.7133L14.9013 55.7614L18.0904 78.9352H23.2492V42.1844V36.1322L27.6147 41.1757L41.4188 32.6494L38.9827 28.9952Z" fill="#4A4A4A"/>
<path d="M79.2212 8.2558V4.60165H76.7851H56.0783V0.94751H51.2061V4.60165H30.4993H28.0632V8.2558H30.4993V29.5835L30.8979 30.233L32.9354 29.235V8.2558H74.3491V44.7972H32.9354V40.7469L30.4993 42.2517V44.7972H28.0632V48.4514H30.4993H52.4623V58.0554L44.1119 73.9981C42.8974 74.1207 41.9471 75.1342 41.9471 76.3808C41.9471 77.7106 43.0248 78.7884 44.3546 78.7884C45.6844 78.7884 46.7622 77.7107 46.7622 76.3808C46.7622 75.8704 46.6016 75.3993 46.3304 75.0105L52.4624 63.3046V75.2484H54.8985V63.5961L60.9114 75.0747C60.6675 75.4519 60.5225 75.899 60.5225 76.3808C60.5225 77.7106 61.6002 78.7884 62.93 78.7884C64.2598 78.7884 65.3376 77.7107 65.3376 76.3808C65.3376 75.1068 64.3455 74.0742 63.0931 73.9899L54.8987 58.3468V48.4514H76.7851H79.2212V44.7972H76.7851V8.2558H79.2212Z" fill="#4A4A4A"/>
<path d="M47.7553 19.817L48.2867 21.1008L48.2982 21.1296L48.2694 21.1439L46.2533 22.2381L46.2246 22.2554L46.2073 22.2267L45.5353 21.1583C45.3946 21.21 45.2395 21.2617 45.0643 21.322C44.8058 21.411 44.5014 21.5144 44.1653 21.6379C43.7661 21.7844 43.3899 21.9366 43.0596 22.0945C42.8643 22.1864 42.6834 22.2841 42.5168 22.3875C42.8643 23.1859 43.2578 23.9355 43.7001 24.642C44.1912 25.4289 44.7369 26.1527 45.3314 26.8161C45.8369 27.3819 46.3136 27.8242 46.7645 28.1918C47.2125 28.5565 47.6405 28.8495 48.0483 29.1108C50.6618 30.791 51.4889 32.1523 52.4223 33.6802C52.9996 34.628 53.62 35.6446 54.7745 36.848C55.8171 37.9336 56.9084 38.7521 58.063 39.3179C59.2089 39.8808 60.4266 40.1939 61.7305 40.28C63.6777 40.4064 66.2194 40.1479 68.6606 39.9009C69.7922 39.7861 70.9037 39.6741 71.9261 39.5994L71.9232 39.585C71.8658 39.2404 71.7911 38.9388 71.6906 38.6803C71.5987 38.4448 71.4867 38.2524 71.346 38.1002C70.7084 37.4138 69.6199 37.454 68.5056 37.4942C67.6755 37.5229 66.8312 37.5545 66.0385 37.3248C64.5307 36.8853 63.4106 35.7423 62.6007 34.2804C62.0493 34.6969 61.5094 34.9783 60.9608 35.099C60.3031 35.2454 59.6713 35.1593 59.0452 34.806C58.6718 34.5935 58.5426 34.1196 58.7522 33.7462C58.9648 33.3729 59.4386 33.2436 59.812 33.4533C60.082 33.6055 60.3491 33.6429 60.6248 33.5825C60.9666 33.5079 61.3457 33.2896 61.7707 32.9536C61.8224 32.9134 61.877 32.8789 61.9344 32.8531C61.8454 32.6233 61.7621 32.3907 61.6817 32.1552C61.2164 32.474 60.7569 32.6922 60.2945 32.7927C59.6368 32.9392 59.005 32.8531 58.3789 32.4998C58.0055 32.2873 57.8763 31.8134 58.0859 31.44C58.2985 31.0667 58.7723 30.9374 59.1457 31.1471C59.4157 31.2993 59.6828 31.3366 59.9585 31.2763C60.3002 31.2017 60.6794 30.9834 61.1044 30.6474C61.1475 30.6129 61.1906 30.5842 61.2394 30.5612C61.1561 30.1965 61.0843 29.8317 61.0211 29.4727C60.5559 29.7915 60.0963 30.0098 59.6311 30.1132C58.9734 30.2596 58.3415 30.1735 57.7154 29.8202C57.3421 29.6077 57.2128 29.1338 57.4225 28.7605C57.635 28.3871 58.1089 28.2579 58.4823 28.4675C58.7522 28.6197 59.0193 28.6571 59.295 28.5968C59.6368 28.5221 60.0159 28.3038 60.441 27.9678C60.5472 27.8816 60.6707 27.8299 60.7942 27.8098C60.7569 27.4221 60.731 27.0459 60.7138 26.6897L60.7109 26.6725L60.688 26.4025C60.619 25.5754 60.5731 25.0096 60.2715 24.7196C59.723 24.1882 58.8499 24.3031 57.994 24.418C57.6149 24.4697 57.2358 24.5185 56.8567 24.5243C55.5902 24.5386 54.4442 24.2744 53.4649 23.6196C52.497 22.9705 51.713 21.9481 51.1644 20.4403C50.7049 19.4925 50.2511 19.0215 49.7629 18.9353C49.2603 18.8463 48.6399 19.1393 47.876 19.728L47.8731 19.7309L47.7553 19.817ZM47.2614 18.921C48.2292 18.1771 49.0822 17.8066 49.8806 17.9244L56.245 9.11885C56.4087 8.89196 56.7217 8.84027 56.9486 9.00397C57.1755 9.16767 57.2272 9.48072 57.0635 9.70761L50.8341 18.3294C51.2908 18.6711 51.7015 19.2254 52.0835 20.021C52.0921 20.0382 52.0978 20.0554 52.1036 20.0727C52.5717 21.3737 53.2265 22.241 54.0249 22.7752C54.8205 23.3094 55.7768 23.5219 56.8452 23.5104C57.1583 23.5076 57.5087 23.4616 57.8619 23.4128C58.4708 23.3324 59.0854 23.2491 59.6655 23.3439L70.6165 10.7961C70.8003 10.5864 71.1191 10.5663 71.3287 10.7473C71.5384 10.9282 71.5585 11.2499 71.3776 11.4595L60.665 23.7345C60.7713 23.8091 60.8746 23.8953 60.978 23.9929C61.5524 24.5501 61.6128 25.2681 61.6989 26.3164C61.7047 26.3767 61.7104 26.4399 61.7219 26.5835C61.7248 26.6036 61.7248 26.6237 61.7248 26.6438C61.8138 28.6513 62.2417 31.2706 63.2412 33.3241C63.9534 34.7917 64.9529 35.9548 66.32 36.354C66.9575 36.5378 67.7215 36.512 68.4711 36.4861C69.8209 36.4373 71.1363 36.3914 72.0869 37.4138C72.3196 37.6637 72.4976 37.9652 72.6355 38.3156C72.7619 38.6401 72.8538 39.0135 72.9227 39.4271C72.9457 39.562 72.9629 39.6999 72.9744 39.8378C73.006 39.9009 73.029 39.9699 73.0318 40.0445C73.0347 40.1221 73.0232 40.1968 72.9945 40.2657C72.9974 40.8257 72.9083 41.3886 72.6901 41.8912C72.4029 42.5575 71.906 43.1118 71.1277 43.4163C70.4958 43.6633 69.2609 43.8499 67.9197 43.9792C66.073 44.1544 63.9936 44.229 63.0574 44.2032C59.8264 44.117 57.4541 43.557 55.4724 42.4656C53.4879 41.3714 51.9169 39.7573 50.2827 37.5545C48.347 34.9467 47.8961 34.6078 46.3079 33.4188C45.9431 33.146 45.5238 32.8301 45.0557 32.4711C43.7116 31.4314 42.3416 30.1591 41.3479 28.8208C40.6184 27.8385 40.0842 26.8104 39.8976 25.7994C39.7023 24.7339 39.8861 23.6971 40.6098 22.758C40.8712 22.422 41.2014 22.1003 41.6064 21.7959C41.8993 21.5776 42.2469 21.3794 42.6288 21.1956C43.0079 21.0147 43.41 20.851 43.8236 20.6988C44.2113 20.5552 44.4985 20.4575 44.7426 20.3742C45.3745 20.1559 45.7162 20.0382 46.1614 19.751C46.2935 19.6648 46.4457 19.5586 46.6238 19.4265C46.8162 19.2829 47.0201 19.1249 47.2441 18.944C47.247 18.9296 47.2527 18.9239 47.2614 18.921ZM41.6954 23.0337C41.5863 23.1428 41.4886 23.2548 41.4025 23.3668C40.8712 24.0532 40.7391 24.8172 40.8827 25.607C41.0377 26.4514 41.5059 27.3388 42.1492 28.209C43.0826 29.467 44.3807 30.6703 45.6645 31.6612C46.1729 32.0546 46.5635 32.3476 46.9052 32.6032C48.5854 33.864 49.065 34.2201 51.0869 36.9457C52.6378 39.0336 54.114 40.5586 55.952 41.5724C57.793 42.5863 60.0188 43.1061 63.0746 43.1894C63.9822 43.2124 66.0069 43.1434 67.8163 42.9682C69.0742 42.8476 70.2115 42.681 70.7515 42.4685C71.2483 42.2732 71.5671 41.9171 71.7538 41.4863C71.8687 41.2163 71.9376 40.9205 71.9634 40.6103C70.9554 40.6821 69.864 40.7941 68.7525 40.9061C66.2683 41.1589 63.6806 41.4202 61.6616 41.291C60.2284 41.1991 58.8872 40.8487 57.6149 40.2255C56.3512 39.6051 55.1651 38.7206 54.0422 37.5488C52.8101 36.265 52.161 35.1995 51.555 34.2058C50.6877 32.7841 49.9151 31.5176 47.4997 29.961C47.0689 29.6852 46.6152 29.3722 46.1241 28.9759C45.6387 28.5795 45.1246 28.1028 44.576 27.491C43.9356 26.7788 43.3554 26.0091 42.8385 25.1791C42.4192 24.507 42.0372 23.7919 41.6954 23.0337Z" fill="#4A4A4A"/>
</g>
<defs>
<clipPath id="clip0_295_107">
<rect width="80" height="80" fill="white"/>
</clipPath>
</defs>
</svg>
