<svg width="50" height="50" viewBox="0 0 50 50" fill="none" xmlns="http://www.w3.org/2000/svg">
<g clip-path="url(#clip0_366_247)">
<path d="M16.6663 25.0158C16.6582 20.4141 20.3826 16.676 24.9834 16.6679C29.585 16.659 33.3239 20.3817 33.3329 24.9843C33.3418 29.5868 29.6173 33.3241 25.0149 33.3331C20.4141 33.3419 16.6752 29.6183 16.6663 25.0158ZM12.1635 25.0248C12.1773 32.1148 17.9356 37.8497 25.0239 37.8358C32.113 37.8221 37.851 32.0654 37.8373 24.9754C37.8235 17.8878 32.0644 12.1496 24.9745 12.1635C17.8861 12.1772 12.1498 17.9363 12.1635 25.0248ZM35.3182 11.6369C35.3214 13.2926 36.6675 14.6332 38.3233 14.63C39.9797 14.6266 41.3203 13.2812 41.3178 11.6256C41.3146 9.9699 39.9684 8.62849 38.312 8.63181C36.6555 8.63503 35.315 9.98123 35.3182 11.6369ZM14.9378 45.3674C12.5005 45.2613 11.1769 44.8562 10.2949 44.5169C9.12682 44.0649 8.29333 43.523 7.41608 42.6523C6.54049 41.7782 5.99694 40.9471 5.54088 39.7815C5.19831 38.8994 4.786 37.5775 4.67174 35.1402C4.54782 32.5052 4.5195 31.7146 4.50739 25.0393C4.4944 18.3657 4.51872 17.5751 4.63375 14.9377C4.73815 12.502 5.14567 11.1767 5.48424 10.2955C5.9362 9.12585 6.47653 8.29392 7.34889 7.41677C8.22282 6.53953 9.05387 5.99763 10.2203 5.54158C11.1016 5.19724 12.4235 4.78816 14.86 4.67244C17.4965 4.54763 18.2863 4.52097 24.9599 4.50798C31.635 4.495 32.4255 4.51853 35.063 4.63435C37.4986 4.74041 38.8238 5.14382 39.7044 5.48484C40.8731 5.93679 41.7066 6.47556 42.5831 7.34949C43.4594 8.22351 44.003 9.05291 44.459 10.2219C44.8032 11.1007 45.2124 12.4242 45.3274 14.8599C45.4529 17.4965 45.4813 18.2871 45.4934 24.9607C45.5063 31.636 45.482 32.4266 45.3663 35.0625C45.2601 37.4997 44.8559 38.8242 44.5158 39.707C44.0637 40.8743 43.5235 41.7078 42.6503 42.585C41.7771 43.459 40.9461 44.0041 39.7789 44.4601C38.8991 44.8036 37.5756 45.2135 35.1408 45.3293C32.5043 45.4532 31.7144 45.4816 25.0384 45.4937C18.3648 45.5067 17.5752 45.4816 14.9378 45.3674ZM14.6462 0.173608C11.9861 0.299194 10.1693 0.725171 8.58161 1.34734C6.93815 1.98806 5.54498 2.84666 4.15914 4.23826C2.77155 5.63064 1.9194 7.02625 1.28356 8.67136C0.668032 10.2631 0.250844 12.0807 0.133364 14.7425C0.0167624 17.4091 -0.00999543 18.2596 0.00299285 25.0482C0.0159811 31.8361 0.0458639 32.6883 0.173012 35.3556C0.300161 38.0149 0.724673 39.8309 1.34674 41.4193C1.98825 43.0629 2.84606 44.4553 4.23844 45.8421C5.63004 47.2288 7.02653 48.0802 8.67243 48.7169C10.2625 49.3315 12.0808 49.7504 14.7418 49.867C17.4083 49.9845 18.2595 50.0103 25.0465 49.9974C31.8368 49.9845 32.6881 49.9545 35.3547 49.8281C38.0147 49.701 39.8298 49.275 41.4191 48.6544C43.0626 48.0113 44.4557 47.1551 45.8418 45.7627C47.2276 44.371 48.0798 42.9746 48.7156 41.3287C49.3312 39.7387 49.75 37.9201 49.8657 35.2609C49.9824 32.5927 50.01 31.7405 49.9969 24.9526C49.9839 18.1639 49.9533 17.3135 49.8269 14.6477C49.7006 11.986 49.2745 10.1708 48.6532 8.58152C48.0109 6.93806 47.154 5.54636 45.7624 4.15886C44.3708 2.77292 42.9743 1.91912 41.3284 1.28494C39.7376 0.669312 37.9199 0.24978 35.259 0.134741C32.5924 0.0164795 31.7412 -0.00939941 24.9517 0.00349122C18.1639 0.0164795 17.3127 0.0455811 14.6462 0.173608Z" 
fill="#f8c80d"/>
</g>
<defs>
<clipPath id="clip0_366_247">
<rect width="50" height="50" fill="white"/>
</clipPath>
</defs>
</svg>
