<svg width="50" height="50" viewBox="0 0 40 40" fill="none" xmlns="http://www.w3.org/2000/svg">
<path d="M24.205 31.3115C24.205 31.3115 31.7067 23.8032 34.63 20.8782C34.8734 20.6348 34.995 20.3148 34.995 19.9948C34.995 19.6748 34.8734 19.3565 34.63 19.1115C31.7084 16.1882 24.205 8.68149 24.205 8.68149C23.965 8.43982 23.6484 8.31982 23.3317 8.31982C23.01 8.31982 22.69 8.44316 22.445 8.68816C21.9567 9.17482 21.9534 9.96482 22.4384 10.4482L30.735 18.7448H6.24835C5.55835 18.7448 4.99835 19.3048 4.99835 19.9948C4.99835 20.6848 5.55835 21.2448 6.24835 21.2448H30.735L22.4367 29.5432C21.955 30.0248 21.96 30.8132 22.4467 31.2998C22.6934 31.5465 23.015 31.6698 23.335 31.6698C23.6517 31.6698 23.965 31.5498 24.205 31.3115Z" fill="#f8c80d"/>
</svg>
