<svg width="80" height="80" viewBox="0 0 121 121" fill="#4A4A4A" xmlns="http://www.w3.org/2000/svg">
<path d="M79.6312 45.491C79.5935 45.66 79.6159 45.8368 79.6947 45.991C79.7735 46.1452 79.9036 46.267 80.0626 46.3355C80.2217 46.404 80.3996 46.4148 80.5658 46.366C80.7319 46.3173 80.8758 46.212 80.9726 46.0685L87.011 37.1164C87.1606 36.8946 87.2471 36.6363 87.2611 36.3691C87.2751 36.102 87.2161 35.836 87.0905 35.5998C86.9649 35.3636 86.7774 35.166 86.5481 35.0282C86.3188 34.8904 86.0563 34.8176 85.7887 34.8176H83.2345C83.1199 34.8176 83.0069 34.7911 82.9042 34.7402C82.8016 34.6893 82.7121 34.6154 82.6428 34.5242C82.5735 34.4329 82.5262 34.3269 82.5046 34.2144C82.483 34.1019 82.4877 33.9859 82.5184 33.8755L84.1309 28.0725C84.162 27.9605 84.1664 27.8426 84.1437 27.7286C84.1211 27.6145 84.0719 27.5073 84.0003 27.4157C83.9286 27.3241 83.8365 27.2506 83.7312 27.2011C83.626 27.1516 83.5106 27.1274 83.3943 27.1307L79.1856 27.247C79.0221 27.2515 78.8647 27.3098 78.7377 27.4129C78.6107 27.516 78.5213 27.6581 78.4833 27.8172L76.3935 36.5656C76.3372 36.8015 76.335 37.0471 76.3872 37.284C76.4394 37.5209 76.5446 37.7428 76.6948 37.9332C76.8451 38.1236 77.0365 38.2774 77.2548 38.3832C77.473 38.489 77.7124 38.5439 77.955 38.5439H80.2549C80.3662 38.5439 80.4762 38.5689 80.5765 38.6171C80.6769 38.6653 80.7652 38.7355 80.8348 38.8224C80.9045 38.9093 80.9537 39.0107 80.9788 39.1192C81.004 39.2277 81.0044 39.3404 80.9802 39.4491L79.6312 45.491Z" fill="#4A4A4A" stroke="black" stroke-width="0.00121"/>
<path d="M94.1725 33.2908C94.2216 33.4706 94.3057 33.6388 94.4198 33.7861C94.534 33.9333 94.6761 34.0566 94.8379 34.1489C94.9998 34.2412 95.1782 34.3007 95.363 34.324C95.5479 34.3473 95.7355 34.3339 95.9152 34.2847C96.0949 34.2354 96.2631 34.1513 96.4102 34.037C96.5573 33.9227 96.6805 33.7805 96.7727 33.6186C96.8648 33.4567 96.9242 33.2782 96.9474 33.0933C96.9705 32.9085 96.957 32.7209 96.9076 32.5412C96.5961 31.4059 96.1594 30.3087 95.6054 29.2698C95.5186 29.1041 95.3998 28.9573 95.2559 28.8377C95.1121 28.7182 94.946 28.6282 94.7672 28.5731C94.5885 28.5181 94.4006 28.4989 94.2143 28.5167C94.0281 28.5346 93.8473 28.5891 93.6822 28.6771C93.5172 28.7652 93.3712 28.885 93.2527 29.0297C93.1341 29.1744 93.0454 29.3411 92.9916 29.5203C92.9378 29.6995 92.9199 29.8875 92.9391 30.0736C92.9583 30.2596 93.0141 30.4401 93.1033 30.6045C93.5582 31.4576 93.9168 32.3585 94.1725 33.2908Z" fill="#4A4A4A" stroke="black" stroke-width="0.00121"/>
<path d="M96.121 36.4689C95.9352 36.4543 95.7484 36.4766 95.5713 36.5345C95.3941 36.5923 95.2302 36.6846 95.0888 36.8059C94.9474 36.9273 94.8314 37.0754 94.7474 37.2417C94.6634 37.4081 94.6131 37.5893 94.5994 37.7752C94.3706 40.7377 93.1423 43.5347 91.1159 45.7078C89.0895 47.8809 86.385 49.3014 83.4457 49.7364C80.5063 50.1713 77.5064 49.5951 74.9374 48.102C72.3684 46.6089 70.3827 44.2876 69.3057 41.5183C68.2286 38.749 68.1241 35.696 69.0093 32.8595C69.8944 30.0231 71.7167 27.5713 74.1775 25.9061C76.6384 24.2408 79.5919 23.4607 82.5541 23.6936C85.5163 23.9266 88.3116 25.1587 90.4819 27.1882C90.6176 27.3166 90.7774 27.417 90.9521 27.4834C91.1267 27.5499 91.3128 27.5812 91.4996 27.5755C91.6864 27.5698 91.8702 27.5273 92.0405 27.4503C92.2108 27.3733 92.3642 27.2634 92.4919 27.127C92.6196 26.9905 92.719 26.8301 92.7845 26.6551C92.85 26.4801 92.8802 26.2938 92.8735 26.107C92.8668 25.9203 92.8232 25.7367 92.7452 25.5668C92.6673 25.397 92.5565 25.2442 92.4193 25.1173C89.7798 22.649 86.3801 21.1504 82.7773 20.8672C79.1746 20.5839 75.5825 21.5328 72.5896 23.5582C69.5968 25.5837 67.3806 28.5657 66.3043 32.0155C65.2279 35.4653 65.3553 39.1784 66.6655 42.5464C67.9757 45.9144 70.391 48.7375 73.5156 50.5531C76.6402 52.3687 80.2889 53.0692 83.8638 52.5398C87.4386 52.0103 90.7276 50.2823 93.1918 47.639C95.6561 44.9956 97.1494 41.5936 97.4271 37.9905C97.4556 37.6155 97.3341 37.2446 97.0891 36.9592C96.8442 36.6739 96.4959 36.4975 96.121 36.4689Z" fill="#4A4A4A" stroke="black" stroke-width="0.00121"/>
<path d="M95.769 56.8032C95.4713 56.8032 95.1858 56.9215 94.9753 57.132C94.7648 57.3425 94.6465 57.6281 94.6465 57.9258V65.7101C94.6465 66.0078 94.7648 66.2933 94.9753 66.5038C95.1858 66.7143 95.4713 66.8326 95.769 66.8326C96.0668 66.8326 96.3523 66.7143 96.5628 66.5038C96.7733 66.2933 96.8916 66.0078 96.8916 65.7101V57.9258C96.8916 57.6281 96.7733 57.3425 96.5628 57.132C96.3523 56.9215 96.0668 56.8032 95.769 56.8032Z" fill="#4A4A4A" stroke="black" stroke-width="0.00121"/>
<path d="M72.1641 62.2851L74.1753 59.7925C74.3622 59.5608 74.4495 59.2643 74.4179 58.9683C74.3862 58.6722 74.2383 58.4009 74.0066 58.2139C73.7749 58.027 73.4784 57.9397 73.1823 57.9713C72.8863 58.003 72.6149 58.1509 72.428 58.3826L70.1637 61.189H68.8745V57.9258C68.8745 57.6281 68.7562 57.3425 68.5457 57.132C68.3352 56.9215 68.0497 56.8032 67.752 56.8032C67.4542 56.8032 67.1687 56.9215 66.9582 57.132C66.7477 57.3425 66.6294 57.6281 66.6294 57.9258V65.7101C66.6294 66.0078 66.7477 66.2933 66.9582 66.5038C67.1687 66.7143 67.4542 66.8326 67.752 66.8326C68.0497 66.8326 68.3352 66.7143 68.5457 66.5038C68.7562 66.2933 68.8745 66.0078 68.8745 65.7101V63.4342H70.1885L72.6575 66.2775C72.7538 66.3901 72.8714 66.4825 73.0035 66.5495C73.1357 66.6164 73.2798 66.6565 73.4275 66.6675C73.5752 66.6785 73.7237 66.6601 73.8643 66.6134C74.0049 66.5668 74.1349 66.4928 74.2467 66.3956C74.3586 66.2985 74.4501 66.1802 74.516 66.0475C74.5819 65.9149 74.6209 65.7705 74.6308 65.6227C74.6406 65.4748 74.6211 65.3265 74.5734 65.1863C74.5256 65.0461 74.4506 64.9167 74.3526 64.8056L72.1641 62.2851Z" fill="#4A4A4A" stroke="black" stroke-width="0.00121"/>
<path d="M79.5307 61.822H81.3031C81.6008 61.822 81.8864 61.7038 82.0969 61.4932C82.3074 61.2827 82.4257 60.9972 82.4257 60.6995C82.4257 60.4017 82.3074 60.1162 82.0969 59.9057C81.8864 59.6952 81.6008 59.5769 81.3031 59.5769H79.5307C78.5685 59.5769 77.6457 59.9591 76.9654 60.6395C76.2851 61.3198 75.9028 62.2426 75.9028 63.2047C75.9028 64.1669 76.2851 65.0896 76.9654 65.77C77.6457 66.4503 78.5685 66.8326 79.5307 66.8326H81.3031C81.6008 66.8326 81.8864 66.7143 82.0969 66.5038C82.3074 66.2932 82.4257 66.0077 82.4257 65.71C82.4257 65.4123 82.3074 65.1267 82.0969 64.9162C81.8864 64.7057 81.6008 64.5874 81.3031 64.5874H79.5307C79.1639 64.5874 78.8122 64.4418 78.5529 64.1825C78.2936 63.9231 78.1479 63.5714 78.1479 63.2047C78.1479 62.838 78.2936 62.4863 78.5529 62.227C78.8122 61.9677 79.1639 61.822 79.5307 61.822Z" fill="#4A4A4A" stroke="black" stroke-width="0.00121"/>
<path d="M91.9947 64.5874H91.62C91.4259 64.5872 91.2398 64.51 91.1025 64.3727C90.9652 64.2355 90.888 64.0494 90.8878 63.8552V62.9976C90.8878 62.0231 90.5007 61.0884 89.8115 60.3993C89.1224 59.7101 88.1878 59.323 87.2132 59.323C86.2386 59.323 85.304 59.7101 84.6148 60.3993C83.9257 61.0884 83.5386 62.0231 83.5386 62.9976V63.1579C83.5382 63.8548 83.7362 64.5374 84.1093 65.126C84.4823 65.7146 85.0152 66.185 85.6456 66.482C86.276 66.7791 86.9779 66.8907 87.6694 66.8038C88.3608 66.7169 89.0133 66.4351 89.5506 65.9912C90.1043 66.5307 90.8469 66.8326 91.62 66.8325H91.9947C92.2924 66.8325 92.5779 66.7142 92.7884 66.5037C92.999 66.2932 93.1172 66.0077 93.1172 65.71C93.1172 65.4122 92.999 65.1267 92.7884 64.9162C92.5779 64.7057 92.2924 64.5874 91.9947 64.5874ZM87.2132 64.5874C86.8342 64.587 86.4708 64.4362 86.2028 64.1682C85.9349 63.9002 85.7841 63.5369 85.7837 63.1579V62.9976C85.7837 62.6185 85.9343 62.2549 86.2024 61.9868C86.4705 61.7187 86.8341 61.5681 87.2132 61.5681C87.5923 61.5681 87.9559 61.7187 88.224 61.9868C88.4921 62.2549 88.6427 62.6185 88.6427 62.9976V63.1579C88.6423 63.5369 88.4915 63.9002 88.2235 64.1682C87.9555 64.4362 87.5922 64.587 87.2132 64.5874Z" fill="#4A4A4A" stroke="black" stroke-width="0.00121"/>
<path d="M103.829 2.93506H59.9237C57.9661 2.93508 56.0887 3.71274 54.7045 5.09698C53.3203 6.48121 52.5426 8.35863 52.5426 10.3162V73.6494C52.2714 73.688 52.01 73.7305 51.7584 73.7768C50.2897 72.2444 48.2454 71.583 46.5158 71.3131C48.0438 68.7178 48.448 65.3454 47.5047 62.714C46.6487 60.3258 44.8361 58.6706 42.2626 57.9272C37.7947 56.6364 35.4365 58.5089 34.302 60.0752C32.7247 58.1349 30.3809 57.6401 27.7801 58.7275L27.7007 58.7636C24.5435 60.3178 23.0586 63.3458 23.4726 67.3376C21.7911 66.724 19.2905 66.4336 16.0472 67.7638C12.8035 69.0939 10.7271 71.9342 10.4928 75.3614C10.377 77.1147 10.758 78.8651 11.5922 80.4115C12.4263 81.9579 13.6798 83.2377 15.2085 84.1039C15.3132 84.1645 15.4126 84.2282 15.5148 84.2903C10.5132 85.8516 9.79004 87.5308 9.79004 88.7818V88.9092C9.79222 90.9355 10.4001 92.9148 11.5356 94.593C12.6711 96.2712 14.2824 97.5717 16.1625 98.3273C19.598 99.732 25.7347 103.103 28.2325 109.896C28.3433 110.197 28.5346 110.801 28.6318 111.113C28.9719 113.283 31.3523 115.029 35.7108 116.304C39.5943 117.44 44.6875 118.065 50.0525 118.065C59.7562 118.065 70.5378 115.926 71.4566 111.232C71.5761 110.849 71.8464 110.007 72.0058 109.602C72.7502 107.736 73.8086 106.01 75.1353 104.5H103.829C104.798 104.5 105.758 104.309 106.653 103.938C107.549 103.568 108.363 103.024 109.048 102.338C109.733 101.653 110.277 100.839 110.648 99.9438C111.019 99.0483 111.21 98.0884 111.21 97.1191V10.3162C111.21 9.34691 111.019 8.38709 110.648 7.49157C110.277 6.59604 109.733 5.78235 109.048 5.09694C108.363 4.41154 107.549 3.86785 106.653 3.49691C105.758 3.12597 104.798 2.93506 103.829 2.93506ZM86.2287 6.62575H88.8968C89.083 6.62575 89.2674 6.66242 89.4394 6.73368C89.6115 6.80494 89.7678 6.90939 89.8994 7.04106C90.0311 7.17273 90.1356 7.32905 90.2068 7.50108C90.2781 7.67312 90.3148 7.85751 90.3148 8.04372C90.3148 8.22993 90.2781 8.41431 90.2068 8.58635C90.1356 8.75839 90.0311 8.9147 89.8994 9.04637C89.7678 9.17804 89.6115 9.28249 89.4394 9.35375C89.2674 9.42501 89.083 9.46169 88.8968 9.46169H86.2287C85.8526 9.46169 85.4919 9.31229 85.226 9.04637C84.9601 8.78045 84.8107 8.41979 84.8107 8.04372C84.8107 7.66765 84.9601 7.30698 85.226 7.04106C85.4919 6.77514 85.8526 6.62575 86.2287 6.62575ZM74.8556 6.62575H81.5261C81.7123 6.62575 81.8967 6.66242 82.0687 6.73368C82.2408 6.80494 82.3971 6.90939 82.5288 7.04106C82.6604 7.17273 82.7649 7.32905 82.8361 7.50108C82.9074 7.67312 82.9441 7.85751 82.9441 8.04372C82.9441 8.22993 82.9074 8.41431 82.8361 8.58635C82.7649 8.75839 82.6604 8.9147 82.5288 9.04637C82.3971 9.17804 82.2408 9.28249 82.0687 9.35375C81.8967 9.42501 81.7123 9.46169 81.5261 9.46169H74.8556C74.4795 9.46169 74.1189 9.31229 73.8529 9.04637C73.587 8.78045 73.4376 8.41979 73.4376 8.04372C73.4376 7.66765 73.587 7.30698 73.8529 7.04106C74.1189 6.77514 74.4795 6.62575 74.8556 6.62575ZM65.9922 78.606C66.3533 78.6933 66.7059 78.7854 67.0503 78.8822C69.8572 79.6739 71.2384 80.5345 71.7637 81.0007C71.3031 81.4452 70.0791 82.2589 67.5408 83.0013C64.4746 83.8981 60.5238 84.3919 56.4156 84.3919C52.3074 84.3919 48.3566 83.898 45.2904 83.0013C42.7521 82.2589 41.5281 81.4452 41.0675 81.0007C41.5928 80.5345 42.974 79.6738 45.7809 78.8822C45.9558 78.8329 46.1368 78.7868 46.3165 78.74C47.9361 80.0358 51.6969 80.9447 56.0774 80.9447C60.6071 80.9448 64.471 79.9726 65.9922 78.606ZM57.0898 76.9506C57.0898 76.2637 58.3228 75.7068 59.8438 75.7068C61.3648 75.7068 62.598 76.2637 62.598 76.9506C62.598 77.6375 61.3649 78.1944 59.8438 78.1944C58.3226 78.1944 57.0898 77.6376 57.0898 76.9506ZM30.0891 87.0137C30.0832 86.3664 30.2183 85.7255 30.485 85.1356C30.7516 84.5457 31.1434 84.0209 31.6332 83.5976C33.4239 82.0529 35.7373 81.2511 38.0998 81.3562C38.5019 83.4828 41.9924 85.3205 47.0547 86.3496C44.6942 88.2831 41.5822 89.5212 39.0558 90.2758L30.2541 90.2298C30.1518 89.1279 30.0958 88.0528 30.0891 87.0137ZM13.3222 75.5548C13.3967 74.4206 13.7941 73.3314 14.4676 72.4159C15.1411 71.5003 16.0625 70.7966 17.1231 70.3877C19.3472 69.476 21.3099 69.4101 22.9551 70.1923C23.3512 70.3808 23.7911 70.4577 24.2276 70.4147C24.6641 70.3716 25.0806 70.2103 25.4321 69.948C25.7836 69.6857 26.0569 69.3324 26.2225 68.9263C26.3881 68.5201 26.4397 68.0765 26.3717 67.6432C25.8827 64.5431 26.7381 62.4185 28.9143 61.3272C30.4592 60.6927 31.5063 60.9463 32.3079 62.1448C32.5329 62.4852 32.8407 62.763 33.2023 62.9523C33.5639 63.1415 33.9676 63.2359 34.3756 63.2266C34.7836 63.2174 35.1827 63.1049 35.5354 62.8995C35.8881 62.6942 36.1829 62.4027 36.3924 62.0524C37.3737 60.4052 39.0361 59.9471 41.4755 60.6517C43.1612 61.1386 44.2916 62.1544 44.8351 63.671C45.5448 65.651 45.1258 68.3679 43.8157 70.2774C43.5784 70.6212 43.4345 71.0207 43.398 71.4368C43.3616 71.853 43.4339 72.2714 43.6078 72.6512C43.7817 73.031 44.0513 73.3591 44.3902 73.6033C44.7291 73.8476 45.1256 73.9996 45.5409 74.0445C46.5111 74.1331 47.4598 74.3823 48.3482 74.782C47.7361 75.0283 47.1576 75.3508 46.6261 75.7418C43.5659 76.4438 41.0024 77.4468 39.4982 78.6248C35.9526 78.1752 33.2474 79.0991 31.3099 80.3115C31.2465 80.3505 31.1731 80.3703 31.0987 80.3684C31.0243 80.3664 30.9521 80.3429 30.8908 80.3005C30.8296 80.2582 30.782 80.199 30.7539 80.1301C30.7258 80.0611 30.7183 79.9855 30.7324 79.9125C32.0874 72.7568 35.1092 68.3475 35.1728 68.2589C35.39 67.9515 35.4761 67.5704 35.4123 67.1994C35.3485 66.8285 35.1399 66.4981 34.8325 66.2809C34.6803 66.1733 34.5084 66.0968 34.3266 66.0557C34.1448 66.0146 33.9567 66.0098 33.773 66.0414C33.402 66.1052 33.0716 66.3138 32.8544 66.6212C32.6767 66.8732 30.1537 70.5178 28.5518 76.5784C28.5295 76.6634 28.4845 76.7407 28.4216 76.8021C28.3587 76.8635 28.2803 76.9067 28.1947 76.927C28.1092 76.9472 28.0197 76.9439 27.936 76.9172C27.8522 76.8906 27.7773 76.8417 27.7191 76.7757C26.2974 75.1596 24.4291 74.0004 22.3498 73.444C21.9825 73.3631 21.5981 73.4315 21.2812 73.634C20.9643 73.8366 20.7409 74.1567 20.66 74.524C20.5792 74.8913 20.6475 75.2757 20.8501 75.5926C21.0526 75.9094 21.3727 76.1329 21.74 76.2138C22.9415 76.5624 24.0472 77.1814 24.9725 78.0232C25.8978 78.8651 26.6182 79.9075 27.0785 81.0708C27.3527 81.7389 27.4626 82.4631 27.3988 83.1825C27.1947 85.5222 27.1965 87.8753 27.4044 90.2147L24.0777 90.1973C23.4097 88.6954 22.5792 87.2711 21.6009 85.9502C20.2511 84.1967 18.5606 82.7341 16.6311 81.6505C15.5621 81.0485 14.6845 80.1572 14.0992 79.0789C13.5139 78.0007 13.2446 76.7792 13.3222 75.5548ZM69.368 108.562C69.1217 109.186 68.6768 110.669 68.6768 110.669C68.4211 112.26 61.7995 115.229 50.0526 115.229C44.9496 115.229 40.1388 114.644 36.5068 113.582C32.6247 112.447 31.4883 111.165 31.4297 110.646C31.4297 110.646 31.072 109.4 30.8943 108.917C28.021 101.103 21.1035 97.2837 17.2357 95.7024C15.8777 95.1586 14.7132 94.2214 13.8918 93.0109C13.0704 91.8005 12.6295 90.3721 12.6259 88.9093V88.8342C12.8331 88.4389 14.2358 87.4729 18.2997 86.4631C18.6702 86.8354 19.015 87.2324 19.3317 87.6513C19.7935 88.2683 20.2155 88.9141 20.5954 89.5847C19.6613 89.3956 18.7409 89.1439 17.8406 88.8311C17.6655 88.7655 17.4791 88.7353 17.2923 88.742C17.1054 88.7488 16.9217 88.7924 16.7518 88.8705C16.5818 88.9485 16.429 89.0594 16.3021 89.1967C16.1752 89.3341 16.0767 89.4952 16.0123 89.6707C15.9479 89.8463 15.9189 90.0328 15.9269 90.2197C15.9348 90.4065 15.9797 90.5899 16.0589 90.7593C16.138 90.9287 16.2499 91.0808 16.3881 91.2068C16.5262 91.3328 16.688 91.4302 16.8639 91.4935C21.8709 93.3301 35.4621 94.6128 49.9152 94.6128C63.3765 94.6128 76.3704 93.5086 82.2491 91.8652C82.6089 91.7619 82.9134 91.5206 83.096 91.1937C83.2786 90.8668 83.3245 90.481 83.2237 90.1204C83.1229 89.7598 82.8836 89.4538 82.558 89.269C82.2324 89.0842 81.8469 89.0356 81.4856 89.134C79.613 89.6193 77.712 89.9879 75.7936 90.2375C73.6338 88.3779 71.2257 86.8277 68.6388 85.6316C69.4937 85.3755 70.3306 85.063 71.144 84.6961C72.9823 84.899 74.7291 85.129 76.3584 85.3866C84.7222 86.7086 87.1976 88.2975 87.4789 88.8342V88.9093C87.4753 90.3722 87.0345 91.8006 86.213 93.011C85.3916 94.2215 84.227 95.1587 82.8689 95.7024C79.1163 97.2366 72.3724 100.947 69.368 108.562ZM107.337 96.0816C107.337 97.2067 106.89 98.2857 106.094 99.0813C105.299 99.8768 104.22 100.324 103.095 100.324H80.0747C81.3045 99.5491 82.5984 98.8811 83.9421 98.3272C85.8223 97.5716 87.4336 96.2712 88.5692 94.593C89.7047 92.9148 90.3127 90.9355 90.3149 88.9092V88.7818C90.3149 87.0999 89.013 84.6438 77.756 82.7412C76.6837 82.56 75.5545 82.3922 74.3854 82.2351C74.6327 81.8496 74.7676 81.4026 74.7747 80.9446C74.7747 78.6276 70.5983 76.6043 65.1458 75.515L65.1454 75.5148C65.1454 75.5148 62.4005 73.5527 56.4155 73.4312V17.1891C56.4155 16.0641 56.8625 14.9851 57.658 14.1895C58.4535 13.394 59.5325 12.9471 60.6576 12.9471H103.095C104.22 12.9471 105.299 13.394 106.094 14.1895C106.89 14.9851 107.337 16.0641 107.337 17.1891L107.337 96.0816Z" fill="#4A4A4A" stroke="black" stroke-width="0.00121"/>
</svg>
